<svg xmlns="http://www.w3.org/2000/svg" xmlns:svgjs="http://svgjs.com/svgjs" xmlns:xlink="http://www.w3.org/1999/xlink" width="768" height="1024" preserveAspectRatio="none" version="1.1" viewBox="0 0 768 1024"><g fill="none" mask="url(&quot;#SvgjsMask1232&quot;)"><rect width="768" height="1024" x="0" y="0" fill="rgba(235, 235, 235, 1)"/><path fill="#999" d="M0,281.229C51.284,273.617,87.444,231.563,133.435,207.629C185.394,180.589,260.405,183.205,287.825,131.445C315.071,80.014,284.255,16.49,263.499,-37.885C245.973,-83.8,209.15,-116.26,178.584,-154.744C146.407,-195.256,126.447,-248.7,79.241,-269.871C29.989,-291.959,-29.847,-291.828,-79.411,-270.45C-127.029,-249.912,-144.251,-193.333,-181.606,-157.363C-224.053,-116.491,-299.301,-102.267,-313.471,-45.07C-327.49,11.52,-275.313,61.703,-248.73,113.591C-223.433,162.968,-207.58,220.407,-161.574,251.414C-115.219,282.656,-55.294,289.436,0,281.229"/><path fill="#fff" d="M768 1412.621C858.684 1412.562 951.317 1475.504 1033.425 1437.009 1116.548 1398.038 1157.252 1302.3 1187.893 1215.759 1216.792 1134.138 1207.347 1048.043 1201.734 961.639 1195.645 867.909 1210.43 764.648 1153.723 689.769 1096.208 613.823 997.611 568.894 902.3779999999999 566.352 813.662 563.9839999999999 751.243 651.923 666.038 676.75 580.559 701.6569999999999 469.977 648.316 406.573 710.822 343.928 772.581 374.71 879.094 371.613 967.008 368.851 1045.401 368.442 1121.301 389.45 1196.878 413.656 1283.96 423.828 1392.599 502.354 1437.353 581.216 1482.298 677.23 1412.68 768 1412.621"/></g><defs><mask id="SvgjsMask1232"><rect width="768" height="1024" fill="#fff"/></mask></defs></svg>