<svg xmlns="http://www.w3.org/2000/svg" version="1.1" xmlns:xlink="http://www.w3.org/1999/xlink" xmlns:svgjs="http://svgjs.com/svgjs" width="1920" height="1080" preserveAspectRatio="none" viewBox="0 0 1920 1080"><g mask="url(&quot;#SvgjsMask1214&quot;)" fill="none"><rect width="1920" height="1080" x="0" y="0" fill="rgba(235, 235, 235, 1)"></rect><path d="M0,710.757C136.866,725.827,292.168,704.762,391.937,609.865C489.498,517.068,445.168,351.254,504.853,230.559C567.513,103.849,739.384,33.826,746.608,-107.346C753.836,-248.601,631.112,-359.747,540.623,-468.453C448.497,-579.125,356.6,-703.386,217.985,-742.39C79.844,-781.261,-73.713,-747.106,-198.629,-676.467C-311.684,-612.536,-347.246,-472.745,-432.348,-374.632C-517.511,-276.45,-648.607,-220.495,-698.304,-100.401C-754.495,35.386,-796.908,203.018,-724.249,330.753C-651.516,458.618,-470.397,460.913,-340.135,529.26C-223.986,590.202,-130.378,696.402,0,710.757" fill="#999999"></path><path d="M1920 1727.667C2046.853 1730.518 2181.658 1721.396 2283.9719999999998 1646.351 2384.207 1572.8310000000001 2410.541 1440.658 2464.184 1328.521 2518.928 1214.0819999999999 2629.985 1105.66 2601.792 981.973 2573.467 857.706 2423.146 811.037 2327.126 727.223 2246.206 656.5899999999999 2181.152 569.579 2082.005 528.263 1975.357 483.821 1853.948 445.66999999999996 1745.212 484.72799999999995 1637.758 523.325 1592.636 645.265 1517.336 731.0899999999999 1441.46 817.571 1332.6399999999999 880.386 1301.022 991.004 1267.804 1107.221 1295.837 1232.248 1342.181 1343.8809999999999 1389.623 1458.158 1463.324 1561.766 1566.393 1630.2240000000002 1670.343 1699.267 1795.242 1724.863 1920 1727.667" fill="#ffffff"></path></g><defs><mask id="SvgjsMask1214"><rect width="1920" height="1080" fill="#ffffff"></rect></mask></defs></svg>