<svg xmlns="http://www.w3.org/2000/svg" xmlns:svgjs="http://svgjs.com/svgjs" xmlns:xlink="http://www.w3.org/1999/xlink" width="428" height="926" preserveAspectRatio="none" version="1.1" viewBox="0 0 428 926"><g fill="none" mask="url(&quot;#SvgjsMask1178&quot;)"><rect width="428" height="926" x="0" y="0" fill="rgba(235, 235, 235, 1)"/><path fill="#999" d="M0,311.13C72.154,321.392,144.271,355.394,213.216,331.771C288.495,305.978,366.053,253.882,389.245,177.762C412.352,101.923,359.27,25.89,328.699,-47.26C304.889,-104.233,272.072,-154.051,231.223,-200.356C190.715,-246.274,145.796,-284.873,92.496,-315.013C25.984,-352.624,-40.67,-405.765,-116.579,-397.032C-195.062,-388.003,-263.024,-332.145,-310.094,-268.698C-355.475,-207.528,-372.449,-129.574,-371.504,-53.414C-370.643,15.939,-340.21,79.529,-305.03,139.302C-272.743,194.16,-232.964,244.961,-177.504,276.202C-123.878,306.41,-60.936,302.464,0,311.13"/><path fill="#fff" d="M428 1261.979C490.694 1262.469 543.699 1221.926 597.597 1189.8980000000001 653.422 1156.725 708.562 1123.821 747.701 1072.003 794.054 1010.6320000000001 845.231 943.33 841.865 866.495 838.425 787.971 786.2049999999999 719.235 729.846 664.4490000000001 676.34 612.437 607.766 573.903 533.491 566.731 464.928 560.11 407.319 611.5409999999999 340.153 626.819 266.77 643.511 177.926 610.613 121.524 660.437 65.118 710.264 65.51999999999998 798.122 61.178 873.259 57.11700000000002 943.535 59.78199999999998 1017.491 97.45299999999997 1076.956 133.23399999999998 1133.437 201.754 1154.606 260.097 1187.263 314.656 1217.8029999999999 365.477 1261.491 428 1261.979"/></g><defs><mask id="SvgjsMask1178"><rect width="428" height="926" fill="#fff"/></mask></defs></svg>